<?xml version="1.0"?>
<svg version="1.1" xmlns="http://www.w3.org/2000/svg" width="220px" height="55px" style=""><path fill="#14848c" d="M22.28,51.9l-20.68-8.72l0-4.8l20.68-8.76l0,5.2l-14.2,6l14.2,5.8l0,5.28z M47.7404,31.9l-1-3.44s-1.88-0.64-4.52-0.64c-4.28,0-6.68,3.12-6.68,9.8c0,6.48,2.52,9.28,6.8,9.28c2.08,0,4.4-0.72,4.4-0.72l0-5.04l-3-0.92l0-3.28l11.52-0.2l0,3.48l-2.72,0.92l0,8.16s-4.12,2.68-10.88,2.68c-8.12,0-12.8-4.88-12.8-14.16c0-9.4,5.28-15,13.48-15c4.84,0,9.32,1.88,9.32,1.88l-0.2,7.2l-3.72,0z M63.3208,23.3c0-2.28,1.64-3.6,3.44-3.6c2.08,0,3.36,1.08,3.36,3.6c0,2.36-1.72,3.64-3.36,3.64c-2.16,0-3.44-1.28-3.44-3.64z M70.0408,47.3l2.8,1l0,3.2l-12,0l0-3.2l3.2-1l0-13l-3.2-1l0-3.2l9.2-0.2l0,17.4z M93.0212,51.5l-0.36-2.12c-0.56,0.56-2.6,2.52-6.04,2.52c-5.6,0-8.2-4.08-8.2-10.68c0-7.52,3.6-11.72,10.92-11.72c0.96,0,2.12,0.2,3,0.4l0-5.08l-3.2-0.8l0-3.2l9.2-0.32l0,26.72l3.2,0.8l0,3.2z M92.3412,44.82l0-9.92c-0.76-0.36-1.96-0.6-3.12-0.6c-3.4,0-4.6,2.6-4.6,6.6c0,4.04,1.12,6.2,3.84,6.2c2.56,0,3.88-2.28,3.88-2.28z M115.1216,37.94l2.64,0l2.72-4.08l-1.76-0.56l0-3.2l10.32-0.2l0,3.4l-2.8,0.52l-3.72,5.24l4.48,8.28l3.04,0.96l0,3.2l-7.4,0l-4.96-9.76l-2.56,0l0,5.56l2.2,1l0,3.2l-11.4,0l0-3.2l3.2-1l0-22.48l-3.2-0.8l0-3.2l9.2-0.32l0,17.44z M148.262,51.5l-0.72-2.6s-3.08,3-6.48,3c-3.88,0-6.24-2.28-6.24-6.28c0-4.72,3.56-6.6,9.64-6.6l2.8,0l0-2.2c0-2.04-1.08-2.92-3.08-2.92c-2.04,0-3.52,0.6-3.52,0.6l-0.6,2.52l-3.6,0l-0.28-5.92s4.84-1.6,8.68-1.6c6.08,0,8.4,2.12,8.4,7.92l0,9.88l3,0.72l0,3.2z M147.262,42.42l-2.28,0c-3.12,0-4.36,0.8-4.36,2.6c0,1.52,0.84,2.4,2.36,2.4c2.12,0,4.28-2.32,4.28-2.32l0-2.68z M180.2824,23.3l-13.36,28.2l-6.08,0l13.32-28.2l6.12,0z M185.0628,34.82l0-5.2l20.68,8.76l0,4.8l-20.68,8.72l0-5.28l14.2-5.8z"/><path fill="#" d=""/></svg>
